HIERARCHY
ROOT Hips
{
  OFFSET 2.26061 22.2878 23.7974
  CHANNELS 6 Xposition Yposition Zposition Zrotation Xrotation Yrotation
  JOINT LeftUpLeg
  {
    OFFSET 8.64259 1.95398 -2.38835
    CHANNELS 3 Zrotation Xrotation Yrotation
    JOINT LeftLeg
    {
      OFFSET 43.7702 0 0
      CHANNELS 3 Zrotation Xrotation Yrotation
      JOINT LeftFoot
      {
        OFFSET 40.6238 0 0
        CHANNELS 3 Zrotation Xrotation Yrotation
        JOINT LeftToeBase
        {
          OFFSET 12.7242 0 0
          CHANNELS 3 Zrotation Xrotation Yrotation
          End Site
          {
            OFFSET 0 0 0
          }
        }
      }
    }
  }
  JOINT RightUpLeg
  {
    OFFSET -8.2249 1.95398 -2.59336
    CHANNELS 3 Zrotation Xrotation Yrotation
    JOINT RightLeg
    {
      OFFSET 43.5653 0 0
      CHANNELS 3 Zrotation Xrotation Yrotation
      JOINT RightFoot
      {
        OFFSET 40.6238 0 0
        CHANNELS 3 Zrotation Xrotation Yrotation
        JOINT RightToeBase
        {
          OFFSET 12.7242 0 0
          CHANNELS 3 Zrotation Xrotation Yrotation
          End Site
          {
            OFFSET 0 0 0
          }
        }
      }
    }
  }
  JOINT Spine
  {
    OFFSET 0.165834 0.87714 6.61349
    CHANNELS 3 Zrotation Xrotation Yrotation
    JOINT Spine1
    {
      OFFSET 7.38963 1.71661e-005 0
      CHANNELS 3 Zrotation Xrotation Yrotation
      JOINT Spine2
      {
        OFFSET 11.9445 1.14441e-005 0
        CHANNELS 3 Zrotation Xrotation Yrotation
        JOINT Spine3
        {
          OFFSET 14.7254 4.19617e-005 0
          CHANNELS 3 Zrotation Xrotation Yrotation
          JOINT Spine4
          {
            OFFSET 10.9679 0 0
            CHANNELS 3 Zrotation Xrotation Yrotation
            JOINT RightShoulder
            {
              OFFSET 2.46616 -1.6653 3.69651
              CHANNELS 3 Zrotation Xrotation Yrotation
              JOINT RightArm
              {
                OFFSET 13.0012 0 0
                CHANNELS 3 Zrotation Xrotation Yrotation
                JOINT RightForeArm
                {
                  OFFSET 28.7848 1.52588e-005 0
                  CHANNELS 3 Zrotation Xrotation Yrotation
                  JOINT RightHand
                  {
                    OFFSET 26.5688 1.52588e-005 0
                    CHANNELS 3 Zrotation Xrotation Yrotation
                    End Site
                    {
                      OFFSET 0 0 0
                    }
                  }
                }
              }
            }
            JOINT LeftShoulder
            {
              OFFSET 2.38034 -1.29275 -3.7523
              CHANNELS 3 Zrotation Xrotation Yrotation
              JOINT LeftArm
              {
                OFFSET 16.3182 6.10351e-005 0
                CHANNELS 3 Zrotation Xrotation Yrotation
                JOINT LeftForeArm
                {
                  OFFSET 27.0901 0 0
                  CHANNELS 3 Zrotation Xrotation Yrotation
                  JOINT LeftHand
                  {
                    OFFSET 24.5451 1.52588e-005 0
                    CHANNELS 3 Zrotation Xrotation Yrotation
                    End Site
                    {
                      OFFSET 0 0 0
                    }
                  }
                }
              }
            }
            JOINT Neck
            {
              OFFSET 5.0226 -0.0266342 0
              CHANNELS 3 Zrotation Xrotation Yrotation
              JOINT Head
              {
                OFFSET 6.69363 2.86102e-005 0
                CHANNELS 3 Zrotation Xrotation Yrotation
                End Site
                {
                  OFFSET 0 0 0
                }
              }
            }
          }
        }
      }
    }
  }
}
MOTION
Frames:	12
Frame Time:	0.0416667
-47.0058 97.3697 38.6611 -85.2027 -85.4876 -84.7848 -171.452 5.42016 91.7847 -10.1558 5.98732 -0.163608 61.3243 1.39657 1.75798 30.0416 1.03059 -0.414597 173.957 4.2489 89.782 -9.79311 -5.35171 -2.37388 61.4811 -1.47892 -0.764715 31.6472 0.353481 -5.34655 0.012134 6.80643 -90.1581 13.2608 -0.0521508 -0.309908 1.58983 -0.0657473 -0.307317 -20.945 0.0433896 -0.311256 -0.932381 0.0433993 -0.311253 92.5401 -52.3599 -96.4926 22.5574 -8.83879 -0.609437 -2.62295 -26.4159 -39.8077 -5.32753 -0.813214 5.13368 -103.207 -54.1299 61.0406 -16.1685 17.4423 -0.314056 -0.254298 10.9478 -30.3846 10.1503 1.33062 8.52848 8.83986 3.4237 3.2409 -3.38274 2.75629 0.834284 
-47.0345 97.3741 38.6935 -86.5172 -86.0121 -86.4377 -171.557 5.13617 91.4747 -9.83392 5.92707 -0.195559 61.1412 1.37239 1.6398 30.0021 1.03291 -0.815865 173.588 4.21899 89.3783 -10.0646 -4.89685 -2.20128 61.796 -1.54762 -0.805073 31.9131 0.347233 -5.17056 -0.0562625 6.82298 -90.121 13.2278 -0.169924 -0.220758 1.5568 -0.179479 -0.213075 -20.9783 -0.0957293 -0.261623 -0.965603 -0.095724 -0.261625 92.535 -52.3248 -96.5062 22.6399 -8.79008 -0.575208 -2.75587 -26.6518 -39.8293 -5.86594 -0.887236 5.7445 -103.345 -54.1881 60.8736 -16.1162 17.3424 -0.161227 -0.243272 10.6768 -30.5889 9.8981 1.34482 9.06255 7.85025 2.19267 4.96012 -2.51843 1.24125 -1.52627 
-46.9954 97.3278 38.7389 -91.0735 -86.2797 -91.2187 -171.599 4.90086 91.2662 -10.0712 5.8113 -0.235767 61.3816 1.49282 1.68302 29.8586 0.955349 -1.22045 173.224 3.65425 89.0755 -9.66218 -4.50325 -2.0072 62.2678 -1.75174 -0.937664 31.3985 0.316052 -4.45705 -0.0922264 6.86238 -90.0907 13.149 -0.226683 -0.15328 1.47804 -0.233208 -0.143162 -21.0571 -0.170139 -0.214326 -1.0445 -0.170136 -0.214324 92.541 -52.2206 -96.5152 22.8116 -8.70271 -0.54991 -2.93215 -26.9105 -39.9618 -5.70132 -0.920543 6.45154 -103.264 -54.1073 60.9535 -16.1806 17.4873 -0.158867 0.0134633 12.0705 -29.6489 11.7096 1.02893 4.62764 8.57455 1.67067 3.96242 -2.69229 0.893623 -0.597373 
-47.0223 97.2426 38.7751 -90.1959 -86.2777 -90.3779 -171.637 5.17934 91.2111 -10.6289 5.6895 -0.20095 61.8666 1.66861 1.68892 29.6677 0.815821 -1.3115 173.172 3.20391 89.021 -8.85988 -4.93728 -1.98831 62.725 -2.08087 -1.15384 30.9691 0.333081 -4.94144 -0.0927993 6.85529 -90.0878 13.1624 -0.226421 -0.147618 1.49146 -0.232699 -0.137516 -21.0437 -0.171587 -0.208837 -1.03109 -0.171592 -0.20885 92.5291 -52.2881 -96.5216 22.7263 -8.65593 -0.555514 -3.06058 -26.9063 -39.8778 -5.39853 -0.883167 6.17578 -103.377 -54.1664 60.8202 -16.1181 17.4483 -0.0847851 0.00544603 12.0263 -29.6259 11.484 1.03178 4.84655 8.64241 1.66564 4.0295 -3.02108 0.876195 -0.586295 
-46.996 97.1288 38.6955 -89.601 -86.1596 -89.6819 -171.666 5.69589 91.2632 -11.5427 5.68042 -0.149785 62.4038 1.75718 1.81273 29.5635 0.730997 -1.26087 173.209 2.52747 89.1091 -7.49922 -5.39245 -1.96999 63.0045 -2.42508 -1.38788 30.4355 0.349741 -5.34993 -0.0788363 6.8627 -90.0999 13.1683 -0.204496 -0.174084 1.49739 -0.211957 -0.164915 -21.0377 -0.14272 -0.227499 -1.02509 -0.142723 -0.227497 92.5171 -52.3304 -96.532 22.6896 -8.69715 -0.399208 -2.70713 -26.9451 -40.0634 -5.84533 -0.919457 6.28531 -103.424 -54.1625 60.7545 -16.1803 17.388 -0.0378103 0.0771681 12.1607 -29.631 11.6641 1.06178 4.96968 8.43496 1.54364 4.09121 -2.76373 0.750301 -0.650122 
-47.0655 97.0368 38.8013 -90.275 -86.1787 -90.5181 -171.619 5.8665 91.2099 -12.1217 5.55313 -0.233713 62.5898 1.62267 1.53851 29.8332 0.930716 -1.16089 173.114 2.14876 88.9668 -7.17343 -5.90759 -2.00388 63.8771 -2.84327 -1.64076 29.9671 0.373404 -5.81732 -0.0830873 6.8606 -90.087 13.1632 -0.206733 -0.148267 1.49228 -0.213062 -0.139026 -21.0429 -0.152618 -0.203543 -1.03024 -0.152619 -0.203547 92.5304 -52.2954 -96.5178 22.6189 -8.69012 -0.459707 -2.77677 -27.0744 -39.9828 -5.69326 -0.901623 6.13757 -103.693 -54.3081 60.443 -16.0392 17.3849 0.125713 0.0439959 12.0326 -29.6787 11.6667 1.06422 4.98743 8.4677 1.64355 4.11965 -2.99334 0.84362 -0.606536 
-47.0375 96.9305 38.7854 -90.0187 -86.2111 -90.1841 -171.616 6.46564 91.3035 -13.1589 5.81313 -0.249363 62.8296 1.54432 1.95122 30.1327 1.21017 -1.75005 173.043 2.14975 88.9711 -7.34389 -6.19627 -1.88754 65.003 -3.28886 -1.89121 29.2453 0.387223 -6.0349 -0.088375 6.85657 -90.0864 13.1679 -0.216931 -0.145844 1.49695 -0.223136 -0.136157 -21.0382 -0.163071 -0.204292 -1.02559 -0.163079 -0.204302 92.522 -52.3568 -96.5201 22.739 -8.62999 -0.434854 -2.9839 -27.0993 -40.0132 -5.62781 -0.911195 6.35928 -103.57 -54.2842 60.6023 -15.9544 17.4609 0.12456 0.0335867 12.0874 -29.6801 11.5169 1.0546 5.01018 8.38566 1.59329 3.75535 -2.98978 0.867489 -0.321959 
-47.0659 96.8572 38.8011 -89.7755 -86.3014 -89.9736 -171.617 6.8451 91.3026 -13.9223 5.51118 -0.256657 63.0711 1.35742 1.38928 30.5489 1.52396 -1.69908 173.096 2.06745 88.9783 -7.37772 -6.34262 -1.94076 65.8596 -3.61404 -2.06479 28.9492 0.416561 -6.48963 -0.0965912 6.85476 -90.0896 13.1639 -0.23483 -0.150169 1.49297 -0.241214 -0.13969 -21.0422 -0.178847 -0.213804 -1.02957 -0.178845 -0.213804 92.5595 -52.4609 -96.4456 22.4976 -8.6318 -0.591036 -2.66122 -27.1148 -39.8126 -5.75145 -0.91627 6.31548 -103.687 -54.3529 60.4683 -15.9718 17.3638 0.0632783 0.0780322 12.2253 -29.5772 11.8343 1.09074 5.08829 8.14044 1.54642 4.02628 -2.7232 0.774739 -0.71791 
-47.0664 96.7953 38.8055 -91.64 -86.1986 -91.8866 -171.613 6.93062 91.254 -14.3269 5.83971 -0.281705 63.4459 1.6487 2.47683 29.5686 0.82696 -2.31269 172.948 1.9786 88.8528 -7.55419 -6.89002 -1.87806 66.5493 -3.92174 -2.23106 28.4421 0.444077 -6.84665 -0.0865108 6.87183 -90.0889 13.13 -0.214446 -0.151373 1.4591 -0.220894 -0.141797 -21.0761 -0.159033 -0.208826 -1.06341 -0.159049 -0.208841 92.4643 -52.3901 -96.5999 22.651 -8.51574 -0.445277 -3.31891 -26.8648 -39.9515 -5.31961 -0.886399 6.32306 -103.781 -54.4759 60.388 -15.8577 17.4368 0.0755726 0.017309 12.0929 -29.7179 12.0692 1.13 5.2411 8.10987 1.45439 3.99052 -2.62204 0.690354 -0.794739 
-47.0923 96.7381 38.8376 -90.2671 -86.3771 -90.5649 -171.618 7.17181 91.2366 -14.6649 5.8978 -0.313716 63.7062 1.73588 2.34662 29.8044 1.02724 -2.57237 173.021 1.96524 88.8689 -7.51297 -6.69314 -1.93453 67.045 -4.0969 -2.31535 28.3176 0.450012 -6.92243 -0.100304 6.86712 -90.0899 13.1405 -0.24228 -0.149831 1.46959 -0.248639 -0.139033 -21.0656 -0.186061 -0.215724 -1.05297 -0.186044 -0.215713 92.5339 -52.3121 -96.51 22.6129 -8.59999 -0.617608 -2.53613 -26.6564 -39.6091 -6.00072 -0.929251 6.30317 -103.852 -54.4312 60.2729 -15.9251 17.3866 0.0745559 0.10005 12.1188 -29.8258 12.0251 1.13449 5.30591 8.19182 1.52463 3.80304 -2.79114 0.794613 -0.569864 
-47.1071 96.7374 38.8445 -90.9703 -86.3205 -91.2876 -171.636 7.1143 91.2224 -14.6681 5.84459 -0.28711 63.7469 1.74796 2.18144 29.5252 0.762914 -1.95669 172.985 1.92802 88.839 -7.52757 -6.80556 -1.92303 67.0681 -4.10857 -2.32203 28.1184 0.441989 -6.79582 -0.0992132 6.87497 -90.0916 13.1276 -0.240939 -0.153328 1.45666 -0.247445 -0.142589 -21.0785 -0.183723 -0.218655 -1.06589 -0.183713 -0.218656 92.5001 -52.258 -96.5703 22.6535 -8.55995 -0.59427 -2.77364 -26.7499 -39.7861 -5.81097 -0.935006 6.60029 -103.847 -54.5354 60.3201 -15.9392 17.2169 -0.0356473 0.117114 12.1649 -29.6132 12.1572 1.11078 5.03302 8.11395 1.44116 3.74557 -2.77649 0.727449 -0.414637 
-47.1133 96.7942 38.8561 -90.6683 -86.3936 -91.0738 -171.679 6.93572 91.1284 -14.2746 5.74489 -0.276156 63.4045 1.62183 2.17986 29.9601 1.14198 -2.5416 172.897 1.96545 88.7438 -7.48138 -6.72068 -1.89849 66.6342 -3.9325 -2.23219 28.5236 0.445723 -6.88593 -0.0988237 6.8719 -90.0804 13.1298 -0.234814 -0.131858 1.45887 -0.24038 -0.121406 -21.0764 -0.184328 -0.196333 -1.06371 -0.184318 -0.196332 92.6863 -52.2939 -96.2844 22.7438 -8.56065 -0.669303 -2.66755 -26.9069 -39.6644 -5.87805 -0.952259 6.79065 -103.786 -54.4423 60.3682 -16.0405 17.207 -0.12164 0.016718 11.9896 -29.5695 12.4274 1.16401 5.26679 8.19094 1.4479 3.63123 -3.07831 0.753218 -0.457192 
